<svg id="visual" viewBox="0 0 900 600" width="900" height="600" xmlns="http://www.w3.org/2000/svg" xmlns:xlink="http://www.w3.org/1999/xlink" version="1.1"><path d="M0 401L16.7 393.7C33.3 386.3 66.7 371.7 100 372.2C133.3 372.7 166.7 388.3 200 399.7C233.3 411 266.7 418 300 412.5C333.3 407 366.7 389 400 372.5C433.3 356 466.7 341 500 348.5C533.3 356 566.7 386 600 392.2C633.3 398.3 666.7 380.7 700 371.8C733.3 363 766.7 363 800 372.3C833.3 381.7 866.7 400.3 883.3 409.7L900 419L900 601L883.3 601C866.7 601 833.3 601 800 601C766.7 601 733.3 601 700 601C666.7 601 633.3 601 600 601C566.7 601 533.3 601 500 601C466.7 601 433.3 601 400 601C366.7 601 333.3 601 300 601C266.7 601 233.3 601 200 601C166.7 601 133.3 601 100 601C66.7 601 33.3 601 16.7 601L0 601Z" fill="#4871df"></path><path d="M0 446L16.7 441.7C33.3 437.3 66.7 428.7 100 430.5C133.3 432.3 166.7 444.7 200 443.5C233.3 442.3 266.7 427.7 300 426.5C333.3 425.3 366.7 437.7 400 443.7C433.3 449.7 466.7 449.3 500 446C533.3 442.7 566.7 436.3 600 431.7C633.3 427 666.7 424 700 425.5C733.3 427 766.7 433 800 429.8C833.3 426.7 866.7 414.3 883.3 408.2L900 402L900 601L883.3 601C866.7 601 833.3 601 800 601C766.7 601 733.3 601 700 601C666.7 601 633.3 601 600 601C566.7 601 533.3 601 500 601C466.7 601 433.3 601 400 601C366.7 601 333.3 601 300 601C266.7 601 233.3 601 200 601C166.7 601 133.3 601 100 601C66.7 601 33.3 601 16.7 601L0 601Z" fill="#6a7fd7"></path><path d="M0 504L16.7 497.7C33.3 491.3 66.7 478.7 100 475C133.3 471.3 166.7 476.7 200 477.5C233.3 478.3 266.7 474.7 300 468.8C333.3 463 366.7 455 400 449.7C433.3 444.3 466.7 441.7 500 447.3C533.3 453 566.7 467 600 474.5C633.3 482 666.7 483 700 480.8C733.3 478.7 766.7 473.3 800 469.8C833.3 466.3 866.7 464.7 883.3 463.8L900 463L900 601L883.3 601C866.7 601 833.3 601 800 601C766.7 601 733.3 601 700 601C666.7 601 633.3 601 600 601C566.7 601 533.3 601 500 601C466.7 601 433.3 601 400 601C366.7 601 333.3 601 300 601C266.7 601 233.3 601 200 601C166.7 601 133.3 601 100 601C66.7 601 33.3 601 16.7 601L0 601Z" fill="#838dce"></path><path d="M0 546L16.7 536C33.3 526 66.7 506 100 495C133.3 484 166.7 482 200 487C233.3 492 266.7 504 300 513.7C333.3 523.3 366.7 530.7 400 526.3C433.3 522 466.7 506 500 501.5C533.3 497 566.7 504 600 506.8C633.3 509.7 666.7 508.3 700 509C733.3 509.7 766.7 512.3 800 506.7C833.3 501 866.7 487 883.3 480L900 473L900 601L883.3 601C866.7 601 833.3 601 800 601C766.7 601 733.3 601 700 601C666.7 601 633.3 601 600 601C566.7 601 533.3 601 500 601C466.7 601 433.3 601 400 601C366.7 601 333.3 601 300 601C266.7 601 233.3 601 200 601C166.7 601 133.3 601 100 601C66.7 601 33.3 601 16.7 601L0 601Z" fill="#979bc5"></path><path d="M0 533L16.7 533.2C33.3 533.3 66.7 533.7 100 536.3C133.3 539 166.7 544 200 546.7C233.3 549.3 266.7 549.7 300 546.3C333.3 543 366.7 536 400 540.2C433.3 544.3 466.7 559.7 500 566.2C533.3 572.7 566.7 570.3 600 562.8C633.3 555.3 666.7 542.7 700 542.5C733.3 542.3 766.7 554.7 800 555C833.3 555.3 866.7 543.7 883.3 537.8L900 532L900 601L883.3 601C866.7 601 833.3 601 800 601C766.7 601 733.3 601 700 601C666.7 601 633.3 601 600 601C566.7 601 533.3 601 500 601C466.7 601 433.3 601 400 601C366.7 601 333.3 601 300 601C266.7 601 233.3 601 200 601C166.7 601 133.3 601 100 601C66.7 601 33.3 601 16.7 601L0 601Z" fill="#a9aabc"></path></svg>