<svg id="visual" viewBox="0 0 900 600" width="900" height="600" xmlns="http://www.w3.org/2000/svg" xmlns:xlink="http://www.w3.org/1999/xlink" version="1.1"><path d="M759 600L754.7 591.7C750.3 583.3 741.7 566.7 749.3 550C757 533.3 781 516.7 798.2 500C815.3 483.3 825.7 466.7 822.8 450C820 433.3 804 416.7 793.2 400C782.3 383.3 776.7 366.7 775.7 350C774.7 333.3 778.3 316.7 783.5 300C788.7 283.3 795.3 266.7 796 250C796.7 233.3 791.3 216.7 776.3 200C761.3 183.3 736.7 166.7 728.7 150C720.7 133.3 729.3 116.7 746.3 100C763.3 83.3 788.7 66.7 795.3 50C802 33.3 790 16.7 784 8.3L778 0L900 0L900 8.3C900 16.7 900 33.3 900 50C900 66.7 900 83.3 900 100C900 116.7 900 133.3 900 150C900 166.7 900 183.3 900 200C900 216.7 900 233.3 900 250C900 266.7 900 283.3 900 300C900 316.7 900 333.3 900 350C900 366.7 900 383.3 900 400C900 416.7 900 433.3 900 450C900 466.7 900 483.3 900 500C900 516.7 900 533.3 900 550C900 566.7 900 583.3 900 591.7L900 600Z" fill="#4871DF" stroke-linecap="round" stroke-linejoin="miter"></path></svg>