<svg id="visual" viewBox="0 0 900 600" width="900" height="600" xmlns="http://www.w3.org/2000/svg" xmlns:xlink="http://www.w3.org/1999/xlink" version="1.1"><g transform="translate(470.84261527454555 330.7961121537561)"><path d="M145.6 -210.3C173.7 -180 171 -117.4 175.5 -65.9C180.1 -14.4 191.8 25.9 178.4 55.2C165.1 84.5 126.6 103 92.7 122.8C58.8 142.6 29.4 163.8 -4.4 169.9C-38.2 175.9 -76.4 166.8 -114.8 148.5C-153.1 130.1 -191.6 102.4 -211.4 63.5C-231.1 24.6 -232.1 -25.5 -209.5 -59.7C-186.9 -93.9 -140.8 -112.1 -101.9 -138.8C-63.1 -165.5 -31.5 -200.8 13.6 -219.5C58.8 -238.2 117.6 -240.5 145.6 -210.3" fill="#ff1111"></path></g></svg>